# xmcd
#
# Track frame offsets:
#	150
#	14737
#	26099
#	40574
#	53836
#	66773
#	80623
#	93765
#	106422
#	118427
#
# Disc length: 2800 seconds
#
# Revision: 2
# Processed by: cddbd v1.5.1PL0 Copyright (c) Steve Scherf et al.
# Submitted via: audiograbber 1.81.02
#
DISCID=810aee0a
DTITLE=Yoyoy Villame - The Best Of Yoyoy Villame Volume 2
DYEAR=1997
DGENRE=OPM
TTITLE0=Ballroom Dancing
TTITLE1=Cha Cha Han
TTITLE2=Bolare
TTITLE3=Hernando's Hideway
TTITLE4=Tekya
TTITLE5=Pepita Bungangera
TTITLE6=Wilma
TTITLE7=Happy, Happy Song
TTITLE8=Tweedle, Tweedle, Dam
TTITLE9=Gitik-Gitik Visayan Songs Non-Stop Medley 2
EXTD=
EXTT0=
EXTT1=
EXTT2=
EXTT3=
EXTT4=
EXTT5=
EXTT6=
EXTT7=
EXTT8=
EXTT9=
PLAYORDER=
